# xmcd
#
# Track frame offsets:
#	150
#	13440
#	27160
#	38117
#	51845
#	64565
#	77140
#	90889
#	104112
#	116230
#	127655
#	143600
#	165337
#	176572
#	189365
#	200412
#	214817
#	233005
#	249597
#	265330
#
# Disc length: 3701 seconds
#
# Revision: 1
# Processed by: cddbd v1.5.2PL0 Copyright (c) Steve Scherf et al.
# Submitted via: audiograbber 1.83.01
#
DISCID=0d0e7314
DTITLE=Tucker, Tanya - The Definitive Collection
DYEAR=2006
DGENRE=Country
TTITLE0=Delta Dawn
TTITLE1=What's your Mama's Name
TTITLE2=Would You Lay With Me (In A Field Of Stone)
TTITLE3=Lizzie And The Rain Man
TTITLE4=San Antonio Stroll
TTITLE5=Don't Believe My Heart Can Stand Another You
TTITLE6=You've Got Me To Hold On To
TTITLE7=Here's Some love
TTITLE8=Ridin' Rainbows
TTITLE9=It's A Cowboy Lovin' Night
TTITLE10=Dancing The Night Away
TTITLE11=Texas (When I Die)
TTITLE12=Pecos Promenade
TTITLE13=Can I See You Tonight
TTITLE14=Feel Right
TTITLE15=Just Another Love
TTITLE16=I'll Come Back As Another Woman
TTITLE17=I Won't Take Less Then Your Love
TTITLE18=If It Don't Come Easy
TTITLE19=Strong Enough To Bend
EXTD=
EXTT0=
EXTT1=
EXTT2=
EXTT3=
EXTT4=
EXTT5=
EXTT6=
EXTT7=
EXTT8=
EXTT9=
EXTT10=
EXTT11=
EXTT12=
EXTT13=
EXTT14=
EXTT15=
EXTT16=
EXTT17=
EXTT18=
EXTT19=
PLAYORDER=
